<?xml version="1.0" standalone="no"?>
<!DOCTYPE svg PUBLIC "-//W3C//DTD SVG 20010904//EN"
 "http://www.w3.org/TR/2001/REC-SVG-20010904/DTD/svg10.dtd">
<svg version="1.0" xmlns="http://www.w3.org/2000/svg"
 width="50.000000pt" height="50.000000pt" viewBox="0 0 10417.000000 10417.000000"
 preserveAspectRatio="xMidYMid meet">

<g transform="translate(0.000000,10417.000000) scale(0.100000,-0.100000)"
fill="#000000" stroke="none">
<path d="M50690 98763 c-102 -58 -342 -191 -535 -295 -929 -506 -1289 -707
-1690 -946 -1440 -858 -2344 -1635 -2880 -2473 -107 -167 -266 -484 -328 -650
-136 -370 -189 -669 -189 -1054 0 -232 16 -399 60 -615 l27 -135 1144 -3
c1058 -2 1143 -1 1137 14 -16 42 -24 199 -15 289 50 488 410 1065 1089 1745
107 108 267 261 355 340 l160 143 5 -22854 5 -22854 2985 0 c1642 -1 2995 1
3008 3 l22 4 0 8309 0 8309 695 0 695 0 11 -27 c48 -126 59 -551 34 -1313 -21
-654 -17 -1408 9 -1690 49 -533 136 -973 273 -1380 25 -74 156 -412 292 -750
l247 -615 -32 -430 c-140 -1858 -238 -3564 -289 -5025 -53 -1522 -54 -2998 -5
-4045 78 -1645 270 -2806 604 -3650 68 -172 220 -478 316 -635 107 -177 260
-389 414 -575 69 -82 184 -235 257 -340 72 -104 189 -266 259 -360 961 -1279
2268 -2258 6330 -4745 1125 -688 2239 -1397 3910 -2487 540 -352 2027 -1328
2037 -1337 3 -3 34 -529 48 -821 28 -602 45 -1156 66 -2130 16 -763 23 -3850
10 -4945 -15 -1314 -31 -2344 -37 -2407 l-5 -52 -187 -154 c-2084 -1719 -7115
-5076 -14412 -9614 -2588 -1610 -5047 -3117 -8528 -5227 l-293 -178 -49 21
c-130 56 -594 282 -945 460 -2523 1282 -6815 3787 -13142 7670 l-461 284 -6
81 c-16 219 -41 1221 -57 2236 -15 932 -15 4350 0 5760 31 3006 71 5291 156
8905 20 860 22 916 43 932 9 7 118 79 241 159 1342 877 3642 2174 7206 4064
951 504 1416 752 1795 958 1878 1017 2503 1437 3210 2158 550 561 915 1107
1178 1759 387 962 544 2186 504 3933 -22 921 -66 1688 -173 2987 -17 203 -31
370 -32 371 -4 3 -768 -63 -771 -67 -2 -2 2 -74 10 -159 152 -1746 219 -3275
184 -4240 -70 -1963 -453 -3025 -1449 -4027 -693 -696 -1257 -1069 -3216
-2125 -376 -203 -806 -432 -1910 -1018 -3652 -1939 -5976 -3265 -7326 -4181
l-236 -160 -7 -207 c-34 -1063 -112 -4790 -146 -6932 -60 -3850 -68 -7861 -20
-9950 24 -1025 53 -1640 80 -1689 8 -16 125 -88 1500 -931 6423 -3937 10986
-6571 13190 -7615 285 -135 685 -315 700 -315 11 0 996 595 2615 1580 9914
6033 16754 10441 20075 12939 479 360 867 668 1262 1001 l195 164 7 376 c3
206 11 627 16 935 61 3459 30 7181 -75 9005 -23 404 -56 844 -63 852 -13 12
-1730 1139 -2462 1616 -1613 1051 -2727 1759 -3760 2392 -2522 1545 -3752
2359 -4676 3096 -773 615 -1277 1147 -1751 1844 -65 96 -178 246 -250 332
-373 444 -564 781 -739 1303 -268 806 -406 1822 -476 3510 -17 408 -17 2322 0
2875 40 1300 88 2339 172 3685 60 952 154 2262 164 2272 6 7 2389 -168 2398
-176 4 -4 -1 -123 -12 -266 -119 -1585 -224 -3526 -270 -4950 -41 -1273 -41
-2670 0 -3550 75 -1612 261 -2583 592 -3080 30 -46 117 -146 204 -235 121
-123 166 -178 224 -270 144 -226 296 -429 461 -615 735 -827 2089 -1781 5399
-3805 1464 -895 3502 -2211 6670 -4305 223 -147 407 -269 409 -271 2 -1 18
-60 37 -130 173 -657 280 -2249 324 -4814 35 -2084 15 -5353 -51 -8145 l-11
-460 -26 -35 c-42 -57 -465 -476 -622 -617 -1990 -1783 -6796 -5058 -14400
-9813 -2795 -1748 -5231 -3243 -9385 -5760 -1253 -759 -1461 -886 -1621 -986
l-106 -67 -82 17 c-817 173 -2569 1005 -5271 2504 -2620 1452 -5826 3356
-10768 6394 -1039 638 -1689 1036 -1778 1086 l-56 32 -17 122 c-94 698 -147
1756 -188 3773 -17 821 -17 5260 0 6585 46 3629 104 6657 193 9980 l20 774 56
68 c300 367 1147 986 2428 1775 1501 924 3337 1949 6455 3603 2041 1083 2682
1432 3235 1763 551 329 837 539 1126 827 510 507 700 1095 770 2385 15 270 15
1213 0 1600 -30 779 -79 1569 -151 2442 -17 199 -30 366 -30 372 0 8 -334 11
-1170 11 -1108 0 -1170 -1 -1170 -17 0 -10 4 -65 10 -123 29 -324 97 -1386
125 -1950 29 -610 36 -830 42 -1370 10 -967 -33 -1506 -138 -1711 -78 -154
-747 -553 -2439 -1456 -206 -110 -789 -420 -1295 -688 -1656 -878 -2372 -1262
-3290 -1768 -2607 -1434 -4391 -2546 -5460 -3402 -296 -237 -404 -333 -631
-560 -377 -375 -531 -603 -604 -893 -148 -588 -254 -1912 -320 -3982 -78
-2464 -86 -6420 -20 -10300 81 -4786 247 -8747 381 -9106 49 -130 187 -302
440 -549 2019 -1971 10779 -7113 16114 -9460 1339 -589 2408 -970 3055 -1088
402 -74 612 -62 993 54 1351 415 4560 2190 9002 4979 6609 4151 14431 9585
17350 12055 385 325 618 539 855 781 195 199 275 300 333 417 285 578 484
2270 567 4802 44 1368 44 3358 0 4835 -97 3212 -346 5527 -661 6152 -289 573
-1444 1521 -3614 2967 -974 649 -1817 1188 -3917 2502 -2154 1349 -2818 1772
-3598 2294 -932 625 -1455 1019 -1776 1339 -170 169 -224 244 -284 394 -264
657 -435 2474 -510 5397 -48 1866 -51 4576 -9 6923 7 348 10 634 8 636 -2 2
-782 85 -1734 185 -951 100 -1751 184 -1777 188 l-46 5 -35 98 c-152 421 -211
999 -188 1828 6 207 16 526 22 707 14 397 6 948 -16 1175 -44 460 -127 783
-277 1080 -86 172 -168 293 -285 419 -331 359 -831 589 -1468 676 -183 25
-165 15 -165 93 0 176 39 337 94 391 l35 34 158 13 c759 66 1278 323 1588 789
406 607 465 1527 204 3144 -33 209 -25 193 -179 355 -209 219 -423 373 -984
708 -548 328 -680 422 -891 633 -95 95 -162 172 -207 239 l-67 98 297 149
c163 81 371 191 462 245 1279 749 2037 1707 2276 2877 48 236 65 405 71 703
10 483 -37 862 -167 1359 -132 507 -388 1117 -645 1539 l-43 71 -1564 1100
-1563 1100 -3 55 c-1 30 -9 114 -17 187 -37 328 -5 453 141 554 40 27 60 32
197 50 858 109 1463 323 1955 691 118 88 346 313 429 423 280 372 446 775 538
1308 60 349 80 678 72 1187 -8 481 -17 625 -107 1635 -76 848 -98 1167 -116
1667 l-6 177 -3844 3526 c-2115 1939 -3850 3528 -3857 3530 -7 2 -95 -44 -197
-102z m8 -25620 l-3 -23198 -500 0 -500 0 0 22859 0 22859 148 108 c267 194
823 566 850 568 4 1 6 -10438 5 -23196z m1651 -556 l1 -22647 -492 2 -493 3
-3 23065 c-1 12686 0 23071 3 23078 3 7 203 -163 494 -420 l490 -433 0 -22648z
m2303 20606 l1595 -1413 6 -297 c10 -424 33 -778 107 -1608 86 -967 100 -1173
107 -1625 6 -405 -3 -581 -38 -755 -16 -80 -63 -215 -74 -215 -1 0 -60 -11
-131 -24 -887 -168 -1564 -455 -2098 -890 -497 -405 -827 -959 -936 -1571 -42
-231 -42 -247 -44 -1202 l-2 -933 1826 -1282 c1004 -706 1837 -1294 1851
-1308 27 -27 122 -257 179 -435 156 -490 185 -933 85 -1280 -104 -358 -401
-715 -855 -1027 -317 -218 -490 -304 -1940 -958 -685 -309 -1246 -563 -1248
-565 -1 -1 292 -508 652 -1126 420 -721 665 -1131 683 -1144 159 -117 416
-312 501 -383 525 -430 1082 -983 1566 -1556 170 -202 386 -473 386 -486 0
-11 -140 -66 -435 -170 -582 -206 -913 -369 -1206 -590 -104 -79 -291 -260
-372 -360 -327 -404 -504 -927 -531 -1575 -4 -71 -11 -544 -16 -1050 -5 -506
-12 -1011 -15 -1122 l-6 -203 71 0 70 0 0 -8050 0 -8050 -690 0 -690 0 0
22351 0 22350 23 -18 c13 -10 741 -654 1619 -1430z"/>
<path d="M27170 73195 l0 -17985 10605 0 10605 0 0 3230 0 3230 -8112 2 -8113
3 -3 14753 -2 14752 -2490 0 -2490 0 0 -17985z"/>
<path d="M35370 77985 l0 -13005 2450 0 2450 0 0 4530 0 4530 3460 0 3460 0 0
2860 0 2860 -3460 0 -3460 0 0 2755 0 2755 3780 0 3780 0 0 2860 0 2860 -6230
0 -6230 0 0 -13005z"/>
<path d="M46370 67580 l0 -3980 430 0 430 0 0 3980 0 3980 -430 0 -430 0 0
-3980z"/>
<path d="M51439 27999 c-488 -24 -990 -129 -1419 -296 -133 -52 -409 -183
-525 -250 -146 -84 -2218 -1385 -2318 -1455 -953 -673 -1627 -1811 -1791
-3023 -39 -289 -46 -732 -16 -970 34 -267 714 -4830 736 -4940 118 -589 396
-1146 787 -1573 448 -490 1081 -833 1737 -941 371 -61 770 -53 1148 25 331 68
703 211 1007 387 160 92 7437 4534 7520 4590 725 486 1220 1211 1375 2016 35
180 50 347 50 556 0 475 -92 873 -300 1300 -249 511 -649 964 -1135 1286 -120
79 -4325 2686 -4441 2752 -126 73 -375 189 -534 250 -440 169 -894 260 -1415
287 -218 11 -237 11 -466 -1z m521 -2350 c222 -24 476 -96 660 -187 94 -47
4284 -2641 4410 -2730 319 -227 437 -567 300 -860 -61 -130 -183 -269 -317
-360 -124 -84 -7383 -4507 -7464 -4548 -47 -24 -126 -55 -175 -70 -79 -24
-105 -28 -234 -28 -132 0 -152 2 -226 27 -236 79 -407 277 -489 564 -27 94
-718 4730 -730 4898 -21 281 71 679 230 995 143 286 368 560 581 711 152 108
2180 1373 2263 1412 227 106 526 177 811 190 89 5 266 -2 380 -14z"/>
</g>
</svg>
